<svg width="60" height="60" viewBox="0 0 60 60" fill="none" xmlns="http://www.w3.org/2000/svg">
<path d="M48.825 20L35 6.175C34.6488 5.82328 34.172 5.62545 33.675 5.625H27.5C25.6767 5.625 23.9279 6.34932 22.6386 7.63865C21.3493 8.92795 20.625 10.6766 20.625 12.5V15.625H17.5C15.6766 15.625 13.9279 16.3493 12.6386 17.6386C11.3493 18.9279 10.625 20.6766 10.625 22.5V47.5C10.625 49.3233 11.3493 51.072 12.6386 52.3612C13.9279 53.6507 15.6766 54.375 17.5 54.375H35C36.8233 54.375 38.572 53.6507 39.8612 52.3612C41.1507 51.072 41.875 49.3233 41.875 47.5V44.375H42.5C44.3233 44.375 46.072 43.6507 47.3612 42.3612C48.6507 41.072 49.375 39.3233 49.375 37.5V21.25C49.3553 20.779 49.159 20.3327 48.825 20ZM35.625 12.025L42.975 19.375H35.625V12.025ZM38.125 47.5C38.125 48.3287 37.7957 49.1237 37.2097 49.7097C36.6237 50.2957 35.8287 50.625 35 50.625H17.5C16.6712 50.625 15.8763 50.2957 15.2903 49.7097C14.7042 49.1237 14.375 48.3287 14.375 47.5V22.5C14.375 21.6712 14.7042 20.8764 15.2903 20.2903C15.8763 19.7043 16.6712 19.375 17.5 19.375H20.625V37.5C20.625 39.3233 21.3493 41.072 22.6386 42.3612C23.9279 43.6507 25.6767 44.375 27.5 44.375H38.125V47.5ZM42.5 40.625H27.5C26.6713 40.625 25.8763 40.2957 25.2903 39.7097C24.7043 39.1237 24.375 38.3287 24.375 37.5V12.5C24.375 11.6712 24.7043 10.8763 25.2903 10.2903C25.8763 9.70425 26.6713 9.375 27.5 9.375H31.875V21.25C31.8815 21.7453 32.081 22.2184 32.4312 22.5687C32.7815 22.9189 33.2547 23.1185 33.75 23.125H45.625V37.5C45.625 38.3287 45.2957 39.1237 44.7097 39.7097C44.1237 40.2957 43.3287 40.625 42.5 40.625Z" fill="black"/>
</svg>
