<svg width="52" height="40" viewBox="0 0 52 40" fill="none" xmlns="http://www.w3.org/2000/svg">
<path d="M16.3606 32.3371L14.9554 33.7423C14.768 33.9297 14.5525 34.0234 14.3091 34.0234C14.0656 34.0234 13.8502 33.9297 13.6627 33.7423L0.566676 20.6462C0.379322 20.4588 0.285645 20.2434 0.285645 19.9999C0.285645 19.7562 0.379316 19.5407 0.566659 19.3535L13.6627 6.25747C13.8501 6.07005 14.0656 5.97633 14.309 5.97633C14.5528 5.97633 14.7682 6.07005 14.9554 6.25747L16.3606 7.66263C16.548 7.85006 16.6417 8.06552 16.6417 8.309C16.6417 8.55243 16.548 8.76789 16.3606 8.95537L5.31607 19.9999L16.3606 31.0444C16.548 31.2318 16.6417 31.4473 16.6417 31.6907C16.6417 31.9342 16.548 32.1496 16.3606 32.3371ZM32.9695 2.35117L22.4871 38.6322C22.4122 38.8759 22.267 39.0586 22.0515 39.1802C21.836 39.3019 21.6159 39.3253 21.391 39.2505L19.6486 38.7728C19.4052 38.6979 19.2225 38.5527 19.1006 38.3372C18.9789 38.1217 18.9555 37.8922 19.0303 37.6486L29.5128 1.3676C29.5876 1.12389 29.7328 0.941217 29.9484 0.819589C30.1638 0.697875 30.3839 0.674446 30.6088 0.749303L32.3512 1.22703C32.5946 1.30189 32.7773 1.44709 32.8992 1.66263C33.0209 1.87806 33.0443 2.10757 32.9695 2.35117ZM51.4332 20.6462L38.3372 33.7423C38.1497 33.9297 37.9343 34.0234 37.6908 34.0234C37.4471 34.0234 37.2316 33.9297 37.0444 33.7423L35.6393 32.3371C35.4518 32.1497 35.3581 31.9342 35.3581 31.6907C35.3581 31.447 35.4518 31.2316 35.6393 31.0444L46.6838 19.9999L35.6393 8.95537C35.4518 8.76795 35.3581 8.55249 35.3581 8.309C35.3581 8.06557 35.4518 7.85012 35.6393 7.66263L37.0444 6.25747C37.2319 6.07005 37.4473 5.97633 37.6908 5.97633C37.9342 5.97633 38.1497 6.07005 38.3372 6.25747L51.4332 19.3535C51.6206 19.5409 51.7143 19.7564 51.7143 19.9999C51.7143 20.2433 51.6206 20.4588 51.4332 20.6462Z" fill="white"/>
</svg>
