<svg width="50" height="50" viewBox="0 0 50 50" fill="none" xmlns="http://www.w3.org/2000/svg">
<g clip-path="url(#clip0_27_5)">
<path d="M24.1649 47.8613V3.48537H26.9365V47.8613H24.1649ZM30.8403 18.5663C30.7277 17.2951 30.2263 16.307 29.3362 15.6021C28.4575 14.8856 27.2013 14.5273 25.5676 14.5273C24.486 14.5273 23.5847 14.6718 22.8636 14.9607C22.1425 15.2496 21.6018 15.6483 21.2412 16.1568C20.8807 16.6537 20.6948 17.2257 20.6835 17.8729C20.661 18.4045 20.7624 18.8725 20.9877 19.277C21.2244 19.6814 21.5623 20.0397 22.0018 20.3517C22.4524 20.6521 22.9932 20.9179 23.6241 21.1491C24.2551 21.3802 24.9648 21.5824 25.7535 21.7558L28.7278 22.4492C30.4403 22.8305 31.95 23.339 33.257 23.9746C34.5751 24.6102 35.6793 25.3671 36.5694 26.2454C37.4707 27.1237 38.1523 28.1348 38.6142 29.2789C39.0762 30.4229 39.3128 31.7057 39.324 33.1271C39.3128 35.369 38.7607 37.2931 37.6678 38.8995C36.5749 40.5058 35.0033 41.7365 32.9528 42.5917C30.9136 43.4468 28.4518 43.8744 25.5676 43.8744C22.6721 43.8744 20.1484 43.4295 17.9965 42.5397C15.8446 41.6498 14.1715 40.2978 12.9773 38.4834C11.783 36.6691 11.169 34.3752 11.1352 31.6017H19.1456C19.2133 32.7458 19.5119 33.6992 20.0414 34.4619C20.5709 35.2246 21.2976 35.8024 22.2214 36.1953C23.1566 36.5882 24.2381 36.7847 25.4662 36.7847C26.5928 36.7847 27.5505 36.6287 28.3392 36.3166C29.139 36.0046 29.7531 35.5712 30.1813 35.0166C30.6093 34.4619 30.8291 33.8263 30.8403 33.1098C30.8291 32.4395 30.6262 31.8675 30.2319 31.3937C29.8376 30.9083 29.2292 30.4923 28.4068 30.1456C27.5956 29.7874 26.559 29.458 25.2972 29.1576L21.6806 28.2908C18.6837 27.5859 16.3234 26.4476 14.5996 24.876C12.8759 23.2928 12.0196 21.1548 12.0309 18.4622C12.0196 16.2665 12.5942 14.3424 13.7547 12.6899C14.9151 11.0374 16.5206 9.74885 18.5711 8.82435C20.6216 7.89985 22.9594 7.4376 25.5845 7.4376C28.2659 7.4376 30.5925 7.90563 32.5641 8.84169C34.547 9.76618 36.0848 11.0663 37.1777 12.7419C38.2706 14.4176 38.8282 16.359 38.8508 18.5663H30.8403Z" fill="white" fill-opacity="0.2"/>
</g>
<defs>
<clipPath id="clip0_27_5">
<rect width="29" height="45" fill="white" transform="translate(11 3)"/>
</clipPath>
</defs>
</svg>
