<svg width="107" height="107" viewBox="0 0 107 107" fill="none" xmlns="http://www.w3.org/2000/svg">
<path fill-rule="evenodd" clip-rule="evenodd" d="M21.8603 58.0977C29.5368 54.8838 38.1806 57.2467 45.5939 64.5743L45.8387 64.8437C52.3399 73.0038 54.1703 80.3987 51.2931 86.8142C44.1124 102.816 10.015 105.136 6.15222 105.344L0 105.687L3.45259 100.57C3.50771 100.484 9.30488 91.7238 9.30488 76.7625C9.30488 68.8595 14.4654 61.1829 21.8603 58.0977ZM96.3391 1.28467C99.3999 1.22342 101.91 2.13554 103.869 4.03936C106.134 6.30442 107.107 8.93667 106.991 11.875C106.379 26.4446 79.321 53.1348 58.6912 71.3774C57.3383 67.7656 55.1406 63.7865 51.7064 59.5014L51.2167 58.9504C46.754 54.4817 41.7893 51.4209 36.592 49.9517C53.2367 31.097 81.4023 1.89072 96.3391 1.28467Z" fill="#010101"/>
</svg>
