<svg width="34" height="34" viewBox="0 0 34 34" fill="none" xmlns="http://www.w3.org/2000/svg">
<path d="M11.7385 4.82657C11.4166 4.62851 11.0476 4.5199 10.6697 4.51195C10.2918 4.50399 9.91866 4.59697 9.58867 4.78131C9.25869 4.96564 8.98384 5.23466 8.79247 5.56062C8.60111 5.88657 8.50015 6.25768 8.5 6.63566V27.3643C8.50015 27.7423 8.60111 28.1134 8.79247 28.4394C8.98384 28.7653 9.25869 29.0343 9.58867 29.2187C9.91866 29.403 10.2918 29.496 10.6697 29.488C11.0476 29.4801 11.4166 29.3715 11.7385 29.1734L28.5798 18.8091C28.8889 18.6189 29.1441 18.3527 29.3212 18.0359C29.4982 17.7191 29.5912 17.3622 29.5912 16.9993C29.5912 16.6364 29.4982 16.2795 29.3212 15.9627C29.1441 15.6459 28.8889 15.3797 28.5798 15.1895L11.7385 4.82657Z" fill="black"/>
</svg>
