<svg width="60" height="60" viewBox="0 0 60 60" fill="none" xmlns="http://www.w3.org/2000/svg">
<path d="M17.7506 5.82377H23.4319C23.9306 5.82377 24.3356 6.34502 24.3356 6.98815V15.1894C24.3356 15.8325 23.9306 16.3538 23.4319 16.3538H17.7506C17.2519 16.3538 16.8469 15.8325 16.8469 15.1894V6.98815C16.8469 6.34502 17.2519 5.82377 17.7506 5.82377ZM41.1825 27.2325L56.1581 42.2081H48.6713V57.1838H33.6956V42.2081H26.2088L41.1825 27.2325ZM32.6663 46.44H13.3369C12.8194 46.44 12.4013 46.0219 12.4013 45.5044V23.9775C12.4013 23.46 12.8194 23.0419 13.3369 23.0419H46.5638C47.0813 23.0419 47.4994 23.46 47.4994 23.9775V32.2313L53.3494 38.0813V13.215C53.3494 12.6975 45.4444 4.79065 44.925 4.79065H36.0356C36.3525 4.92002 36.5738 5.20877 36.5738 5.54815V17.1375C36.5738 17.595 36.1688 17.9663 35.67 17.9663H15.8063C15.3075 17.9663 14.9025 17.595 14.9025 17.1375V5.54815C14.9025 5.21065 15.1238 4.92002 15.4406 4.79065H7.48689C6.96752 4.79065 6.55127 5.20877 6.55127 5.72627V50.6531C6.55127 51.1725 6.96939 51.5888 7.48689 51.5888H32.6663V46.44ZM49.6988 42.9431V51.5888H52.4156C52.935 51.5888 53.3513 51.1706 53.3513 50.6531V42.945L49.6988 42.9431Z" fill="black"/>
</svg>
