<svg width="50" height="49" viewBox="0 0 50 49" fill="none" xmlns="http://www.w3.org/2000/svg">
<path d="M25 0C11.1928 0 0 10.969 0 24.5C0 38.031 11.1928 49 25 49C38.8072 49 50 38.031 50 24.5C50 10.969 38.8072 0 25 0ZM27.0833 38.7917H22.9167V34.7083H27.0833V38.7917ZM30.2714 25.2098C28.0538 26.5696 27.0833 27.2953 27.0833 28.5833V30.625H22.9167V28.5833C22.9167 24.8988 25.8911 23.0764 28.0619 21.7485C30.2795 20.3888 31.25 19.663 31.25 18.375C31.25 16.122 29.3803 14.2917 27.0833 14.2917H22.9167C20.6197 14.2917 18.75 16.122 18.75 18.375V20.4167H14.5833V18.375C14.5833 13.873 18.3207 10.2083 22.9167 10.2083H27.0833C31.6793 10.2083 35.4167 13.873 35.4167 18.375C35.4167 22.0596 32.4422 23.8819 30.2714 25.2098Z" fill="white"/>
</svg>
