<svg width="42" height="42" viewBox="0 0 42 42" fill="none" xmlns="http://www.w3.org/2000/svg">
<g clip-path="url(#clip0_29_106)">
<path d="M4.125 19.125H41.625C42.1223 19.125 42.5992 19.3225 42.9508 19.6742C43.3025 20.0258 43.5 20.5027 43.5 21C43.5 21.4973 43.3025 21.9742 42.9508 22.3258C42.5992 22.6775 42.1223 22.875 41.625 22.875H4.125C3.62772 22.875 3.15081 22.6775 2.79918 22.3258C2.44754 21.9742 2.25 21.4973 2.25 21C2.25 20.5027 2.44754 20.0258 2.79918 19.6742C3.15081 19.3225 3.62772 19.125 4.125 19.125Z" fill="white"/>
<path d="M4.90125 21L20.4525 36.5475C20.8046 36.8996 21.0024 37.3771 21.0024 37.875C21.0024 38.3729 20.8046 38.8504 20.4525 39.2025C20.1004 39.5546 19.6229 39.7524 19.125 39.7524C18.6271 39.7524 18.1496 39.5546 17.7975 39.2025L0.922495 22.3275C0.747882 22.1533 0.609347 21.9464 0.514823 21.7186C0.420299 21.4908 0.371643 21.2466 0.371643 21C0.371643 20.7534 0.420299 20.5092 0.514823 20.2814C0.609347 20.0536 0.747882 19.8467 0.922495 19.6725L17.7975 2.79749C18.1496 2.44541 18.6271 2.24762 19.125 2.24762C19.6229 2.24762 20.1004 2.44541 20.4525 2.79749C20.8046 3.14956 21.0024 3.62708 21.0024 4.12499C21.0024 4.6229 20.8046 5.10041 20.4525 5.45249L4.90125 21Z" fill="white"/>
</g>
<defs>
<clipPath id="clip0_29_106">
<rect width="42" height="42" fill="white"/>
</clipPath>
</defs>
</svg>
